<svg xmlns="http://www.w3.org/2000/svg" width="73" height="79" fill="none" viewBox="0 0 73 79">
  <path fill="#50449F" d="M62.84 69.1A8.74 8.74 0 0 0 61.37 59c-.58-.62-2.03-2.09-1.33-3.12 1.07-1.15 5.68.58 7.06 1.47a10.49 10.49 0 0 1 4.2 4.7c.9 1.96 1.17 4.15.8 6.27C70.55 77.2 61.97 78.7 56.78 78.7c-2.1 0-3.3-1.1-3.4-2.04-.06-3.94 6.95-2.55 9.45-7.57Z"/>
  <path fill="#6B5DBF" d="M59.77 68.67a18.36 18.36 0 1 0-33.79 10.04h30.77a18.28 18.28 0 0 0 3.02-10.04Z"/>
  <path fill="#50449F" d="M31.23 63.17c-1.8-5.15-11-3.24-10.2 2.16.3 3.14.35 6.3.14 9.43-.35 2-.48 3.74 1.67 3.92h6.04a1.75 1.75 0 0 0 1.42-.6c2.27-2.98 2.58-11.44.93-14.9Z"/>
  <path fill="#6B5DBF" d="M30.16 72.64a13.52 13.52 0 1 0 0-27.05 13.52 13.52 0 0 0 0 27.05Z"/>
  <path fill="#50449F" d="M42.3 78.71h-8.22a1.98 1.98 0 0 1-1.38-.56 1.98 1.98 0 0 1-.57-1.37V63.84a1.98 1.98 0 0 1 .57-1.37c.18-.18.4-.32.63-.42.24-.1.5-.15.75-.15l.78 2.77c1.06 0 2.62 2.9 3.7 3.9A12.24 12.24 0 0 1 42.3 78.7Z"/>
  <path fill="#6B5DBF" d="M39.6 63.17c-1.8-5.15-11-3.24-10.2 2.16.3 3.14.34 6.3.14 9.43-.35 2-.48 3.74 1.68 3.92h6.03a1.75 1.75 0 0 0 1.42-.6c2.26-2.98 2.57-11.44.92-14.9Z"/>
  <path fill="#7D6ED1" d="M45.1.92c4.85-1.75 13.06 4.57 14.45 23.6 1.19 16.24-20.22-13.25-20.22-13.25S40.34 2.55 45.1.92Z"/>
  <path fill="#6B5DBF" d="M46.16 6.28c2.68-.2 5.79 2.99 6.53 13.17.66 9.02-9.49-6.3-9.49-6.3s.14-6.67 2.96-6.87Z"/>
  <path fill="#7D6ED1" d="M16.2.92C11.32-.83 3.12 5.49 1.72 24.52.54 40.76 21.96 11.27 21.96 11.27S20.95 2.55 16.2.92Z"/>
  <path fill="#6B5DBF" d="M15.13 6.28c-2.68-.2-5.79 2.99-6.53 13.17-.67 9.02 9.5-6.3 9.5-6.3s-.14-6.67-2.97-6.87Z"/>
  <path fill="#7D6ED1" d="M56.38 21.02c-2.96-4-6.83-7.23-11.28-9.45a32.21 32.21 0 0 0-28.85 0A31.42 31.42 0 0 0 5 21.02C1.87 25.28-.8 31.68.26 38.04c2.34 14.48 21.56 18.3 30.44 18.3 8.88 0 28.08-3.79 30.43-18.3 1.02-6.3-1.62-12.7-4.75-17.02Z"/>
  <path fill="#7D6ED1" d="M28.85 17.42s-7.7-8.55-4.07-12.46c3-3.4 7.77 5 7.77 5l-3.7 7.46Z"/>
  <path fill="#7D6ED1" d="M26.4 10.43s3.49-7.08 7.86-5.76c4.9 1.47-1.84 9.61-1.84 9.61l-6.03-3.85Z"/>
  <path fill="#DCFFAB" d="M23.01 33.76c1.9-5.55-.67-11.42-5.75-13.12-5.08-1.7-10.74 1.46-12.65 7-1.9 5.53.66 11.41 5.75 13.11 5.09 1.7 10.74-1.44 12.65-7Z"/>
  <path fill="#2D234C" d="M20.55 32.63c1.38-4.07-.51-8.36-4.24-9.62-3.72-1.25-7.86 1.09-9.24 5.15-1.39 4.07.5 8.36 4.23 9.62 3.72 1.26 7.86-1.08 9.25-5.15Z"/>
  <path fill="#fff" d="M18.67 30.26a2 2 0 0 0-.6-1.42 2 2 0 0 0-1.44-.58 2.17 2.17 0 0 0-1.23 3.66c.4.37.9.58 1.44.58a2.06 2.06 0 0 0 1.75-1.43c.08-.26.1-.54.08-.8Z"/>
  <path fill="#DCFFAB" d="M48.12 40.75c5.15-1.7 7.78-7.63 5.86-13.26-1.91-5.63-7.66-8.82-12.8-7.13-5.15 1.68-7.78 7.63-5.86 13.26s7.65 8.82 12.8 7.13Z"/>
  <path fill="#2D234C" d="M47.2 37.63c3.77-1.24 5.7-5.6 4.3-9.73-1.4-4.14-5.62-6.48-9.4-5.25-3.8 1.24-5.72 5.63-4.3 9.73 1.4 4.1 5.67 6.52 9.4 5.25Z"/>
  <path fill="#fff" d="M49.96 30.26a2 2 0 0 0-.6-1.42 2 2 0 0 0-1.44-.58 2.16 2.16 0 0 0-1.22 3.66c.38.37.9.58 1.43.58a2.06 2.06 0 0 0 1.75-1.43c.08-.26.11-.54.08-.8Z"/>
  <path fill="#50449F" fill-rule="evenodd" d="M16.55 46.22a.7.7 0 0 1 .29.47c.02.1.02.19 0 .27a.88.88 0 0 1-.12.26l-2.51 3.33a.74.74 0 0 1-1.02.15.87.87 0 0 1-.2-.21.67.67 0 0 1-.1-.26.62.62 0 0 1 .12-.53l2.53-3.34a.78.78 0 0 1 .48-.28.56.56 0 0 1 .53.14Zm-2.08-3.03a.74.74 0 0 1 0 .54.75.75 0 0 1-.37.41l-5.24 2.62a.95.95 0 0 1-.27.07.75.75 0 0 1-.28 0 .67.67 0 0 1-.25-.13 1.02 1.02 0 0 1-.17-.22.6.6 0 0 1-.07-.27.7.7 0 0 1 0-.27.6.6 0 0 1 .13-.24.88.88 0 0 1 .23-.17L13.42 43a.47.47 0 0 1 .26-.1.5.5 0 0 1 .28 0c.1.03.17.08.25.13.07.06.13.13.18.21l.08-.05ZM39.37 46.22a.7.7 0 0 0-.28.47.75.75 0 0 0 0 .28c.02.09.07.17.12.25l2.5 3.31.22.19c.08.04.17.07.27.08.09.02.19.02.28 0 .1-.02.18-.06.26-.12.07-.06.13-.13.18-.2a.6.6 0 0 0 .1-.27.75.75 0 0 0 0-.28.5.5 0 0 0-.12-.25l-2.53-3.3a.73.73 0 0 0-.47-.27.7.7 0 0 0-.53.11Zm2.08-3.03a.57.57 0 0 0-.07.27.73.73 0 0 0 0 .27.67.67 0 0 0 .36.41l5.2 2.54c.08.05.17.08.27.08.1.02.2.02.3 0 .09-.02.17-.07.25-.14a.63.63 0 0 0 .25-.5.8.8 0 0 0 0-.28.66.66 0 0 0-.16-.25.73.73 0 0 0-.23-.16l-5.2-2.54a.6.6 0 0 0-.27-.07.54.54 0 0 0-.28 0 .58.58 0 0 0-.25.14.66.66 0 0 0-.17.23Z" clip-rule="evenodd"/>
  <path fill="#F1ADDA" d="M28.99 30.08c-4.25 0-8.09 7.6-6.36 11.14.97 1.96 3.5 3.12 6.36 3.12 2.86 0 6-.95 7.05-3.12 1.62-3.46-2.81-11.17-7.05-11.14Z"/>
  <path fill="#A059AB" fill-rule="evenodd" d="M28.07 39.86V35.2h1.45v4.66h-1.45Z" clip-rule="evenodd"/>
  <path fill="#A059AB" d="M27.25 41.13h-.35a3.15 3.15 0 0 1-.97-.35 2.67 2.67 0 0 1-1.18-1.66 2.52 2.52 0 0 1 0-1.02.64.64 0 0 1 .28-.4c.14-.1.3-.14.47-.11.17.01.33.1.44.22.1.14.16.3.16.47-.03.17-.03.33 0 .5a1.19 1.19 0 0 0 .53.82c.15.1.3.16.47.2.12.02.25.02.37 0a1 1 0 0 0 .34-.15c.1-.08.18-.17.24-.27.06-.11.1-.23.1-.34.01-.1.04-.18.1-.26a.56.56 0 0 1 .42-.3.48.48 0 0 1 .27 0 .68.68 0 0 1 .57.77c-.08.52-.35 1-.75 1.35-.42.35-.96.54-1.51.53Z"/>
  <path fill="#A059AB" d="M30.35 41.13c-.54 0-1.07-.19-1.5-.54a2.17 2.17 0 0 1-.73-1.37.6.6 0 0 1 .11-.5.61.61 0 0 1 .2-.17.76.76 0 0 1 .5-.08.77.77 0 0 1 .42.3.8.8 0 0 1 .1.26c.01.12.05.23.1.34.06.1.14.2.23.27.1.07.22.13.35.16h.36c.17-.05.32-.11.47-.2.14-.1.27-.23.35-.39.1-.15.16-.31.18-.49.03-.16.03-.33 0-.49a.7.7 0 0 1 .16-.47c.11-.12.27-.2.43-.23.17-.02.34.02.48.12a.64.64 0 0 1 .28.4 2.52 2.52 0 0 1-1.18 2.68c-.3.17-.62.29-.96.35l-.35.05Z"/>
  <path fill="#2D2562" d="M31.02 32.52c-.7-.87-2.2-.06-2.2-.06s-1.48-.72-2.2.06c-1.25 1.38 1.08 3.06 2.2 3.06 1.13.01 3.33-1.61 2.2-3.06Z"/>
  <path fill="#A4BCFC" d="M23.47 17.72a.4.4 0 0 1-.1-.28c0-.1.04-.2.1-.3a.53.53 0 0 1 .25-.16c2.96-.73 4.03-1.73 4.8-4.8.02-.1.09-.2.18-.27a.44.44 0 0 1 .32-.1c.11-.01.22.03.3.1.1.07.16.17.17.28.71 3 1.74 4.06 4.71 4.87a.48.48 0 0 1 .38.48.4.4 0 0 1-.12.3.54.54 0 0 1-.27.17c-2.96.76-4.02 1.77-4.8 4.7-.02.12-.09.21-.17.28a.5.5 0 0 1-.31.1.47.47 0 0 1-.33-.11.55.55 0 0 1-.16-.27c-.71-3-1.78-4.03-4.7-4.86a.55.55 0 0 1-.25-.13Z"/>
</svg>
